<svg xmlns="http://www.w3.org/2000/svg" width="48" height="48" viewBox="0 0 48 48"><rect width="100%" height="100%" fill="#DDDDDD"/><path fill="#999999" d="M24.97 17.855h1.8l-3.82 12.29h-2.07l-2.68-8.4q-.11-.3-.21-.75-.05.22-.1.4-.05.19-.11.35l-2.71 8.4H13l-3.81-12.29h1.91q.3 0 .5.14t.27.38l2.09 7.35.13.59q.06.32.13.67.07-.36.15-.67.08-.32.17-.59l2.42-7.35q.06-.2.26-.36t.49-.16h.67q.3 0 .49.14.19.15.28.38l2.41 7.35q.17.53.32 1.22.11-.68.24-1.22l2.1-7.35q.05-.22.25-.37.21-.15.5-.15m5.89 7.65h3.91l-1.49-4.09q-.11-.27-.23-.65-.12-.37-.24-.8-.11.43-.23.81t-.23.66zm3.12-7.65 4.83 12.29h-1.77q-.3 0-.48-.15-.19-.15-.28-.37l-.92-2.51h-5.09l-.92 2.51q-.07.2-.26.36-.2.16-.49.16h-1.78l4.83-12.29z"/></svg>